<svg xmlns="http://www.w3.org/2000/svg" width="282" height="282" viewBox="0 0 282 282"><g transform="translate(-3063 2497)"><g transform="translate(3036.387 -2505.843)"><g opacity="0.7"><circle cx="90" cy="90" r="90" transform="translate(101 61)" fill="#ead9d2" opacity="0.5"></circle></g><path d="M137.6,145.77s10.658,15.5,22.949,0" transform="translate(1.018 0.347)" fill="none" stroke="#231d1d" stroke-linecap="round" stroke-linejoin="round" stroke-width="5"></path><path d="M172.423,164.189s24.822,1.606,43.943-9.409a4.922,4.922,0,0,0,2.442-3.452C221.525,134.695,235.295,29.743,149.29,30" transform="translate(0.059 9.843)" fill="none" stroke="#231d1d" stroke-miterlimit="10" stroke-width="5"></path><path d="M143.664,30c-86-.266-73.135,104.686-70.418,121.319a4.938,4.938,0,0,0,2.442,3.461c19.195,11.016,45.853,9.409,45.853,9.409" transform="translate(6.483 9.843)" fill="none" stroke="#231d1d" stroke-miterlimit="10" stroke-width="5"></path><path d="M138.477,262.278H47.515A2.481,2.481,0,0,1,45,259.836V232.793a2.238,2.238,0,0,1,.009-.248c.229-2.185,3.782-29.834,36.471-33.781,0,0,19.2-3.222,35.682-22.9l12.31,85.261" transform="translate(8.613 -2.121)" fill="none" stroke="#231d1d" stroke-miterlimit="10" stroke-width="5"></path><path d="M153.17,262.278h90.971a2.481,2.481,0,0,0,2.515-2.442V232.793a2.24,2.24,0,0,0-.009-.248c-.229-2.185-3.782-29.834-36.471-33.781,0,0-19.2-3.222-35.682-22.9l-12.31,85.261" transform="translate(-0.26 -2.121)" fill="none" stroke="#231d1d" stroke-miterlimit="10" stroke-width="5"></path><line x2="11.346" transform="translate(144.373 260.157)" fill="none" stroke="#231d1d" stroke-miterlimit="10" stroke-width="5"></line><path d="M95.12,196.62l14.311,14.614a.48.48,0,0,1-.138.771l-9.051,4.415a1.576,1.576,0,0,0-.771,2.065l19.378,44.43" transform="translate(4.502 -3.824)" fill="none" stroke="#231d1d" stroke-miterlimit="10" stroke-width="5"></path><path d="M202.97,196.62l-14.311,14.614a.48.48,0,0,0,.138.771l9.051,4.415a1.576,1.576,0,0,1,.771,2.065l-19.378,44.43" transform="translate(-2.398 -3.824)" fill="none" stroke="#231d1d" stroke-miterlimit="10" stroke-width="5"></path><path d="M191.733,101.836a75.206,75.206,0,0,1,1.349,15.376c0,29.531-21.288,53.463-47.551,53.463S97.98,146.734,97.98,117.212a60.593,60.593,0,0,1,1.193-11.787,3.675,3.675,0,0,1,3.993-2.882c10.107.955,41.355,1.331,59.723-27.282a3.759,3.759,0,0,1,5.545-.789c6.71,5.59,21.15,17.662,23.307,27.374Z" transform="translate(4.267 6.267)" fill="none" stroke="#231d1d" stroke-linecap="round" stroke-linejoin="round" stroke-width="5"></path><line x2="37.38" transform="translate(131.31 212.11)" fill="none" stroke="#231d1d" stroke-miterlimit="10" stroke-width="5"></line><path d="M166.5,124.46s6.4-10.327,13.77,0" transform="translate(-1.353 2.471)" fill="none" stroke="#231d1d" stroke-linecap="round" stroke-linejoin="round" stroke-width="5"></path><path d="M118.06,124.46s6.4-10.327,13.77,0" transform="translate(2.62 2.471)" fill="none" stroke="#231d1d" stroke-linecap="round" stroke-linejoin="round" stroke-width="5"></path><line x2="18.359" transform="translate(208.246 236.087)" fill="none" stroke="#231d1d" stroke-linecap="round" stroke-linejoin="round" stroke-width="5"></line><line y1="18.359" transform="translate(217.425 226.908)" fill="none" stroke="#231d1d" stroke-linecap="round" stroke-linejoin="round" stroke-width="5"></line></g><rect width="282" height="282" transform="translate(3063 -2497)" fill="none"></rect></g></svg>