<svg xmlns="http://www.w3.org/2000/svg" width="282" height="282" viewBox="0 0 282 282"><g transform="translate(-2742 2497)"><g transform="translate(2732.6 -2505.973)"><g opacity="0.7"><circle cx="90" cy="90" r="90" transform="translate(53 63)" fill="#ead9d2" opacity="0.5"></circle></g><path d="M192.89,184.6v24.544l20.989,12.263,21-12.263V184.6l-21-12.263Z" transform="translate(-4.188 -2.181)" fill="none" stroke="#231d1d" stroke-miterlimit="10" stroke-width="5"></path><path d="M169.55,225.382v24.535l20.989,12.272,21-12.272V225.382l-21-12.272Z" transform="translate(-1.909 -6.162)" fill="none" stroke="#231d1d" stroke-miterlimit="10" stroke-width="5"></path><path d="M216.08,225.382v24.535l20.989,12.272,20.989-12.272V225.382L237.069,213.11Z" transform="translate(-6.452 -6.162)" fill="none" stroke="#231d1d" stroke-miterlimit="10" stroke-width="5"></path><rect width="79.515" height="17.722" rx="3.75" transform="translate(91.862 43.973)" fill="none" stroke="#231d1d" stroke-linecap="round" stroke-linejoin="round" stroke-width="5"></rect><path d="M90.847,51.23v49.5a16.765,16.765,0,0,1-1.507,6.939L38.935,218.265c-5.143,11.288,3.321,24.012,15.981,24.012h64" transform="translate(10.995 9.644)" fill="none" stroke="#231d1d" stroke-miterlimit="10" stroke-width="5"></path><line x1="61.974" transform="translate(120.096 251.93)" fill="none" stroke="#231d1d" stroke-miterlimit="10" stroke-width="5"></line><path d="M163.6,51.23v49.5a16.765,16.765,0,0,0,1.507,6.939l28.126,61.7" transform="translate(-1.328 9.644)" fill="none" stroke="#231d1d" stroke-miterlimit="10" stroke-width="5"></path><line x2="79.967" transform="translate(91.789 136.068)" fill="none" stroke="#231d1d" stroke-miterlimit="10" stroke-width="5"></line><ellipse cx="5.865" cy="5.865" rx="5.865" ry="5.865" transform="translate(148.638 153.303)" fill="none" stroke="#231d1d" stroke-miterlimit="10" stroke-width="5"></ellipse><ellipse cx="5.865" cy="5.865" rx="5.865" ry="5.865" transform="translate(76.242 216.152)" fill="none" stroke="#231d1d" stroke-miterlimit="10" stroke-width="5"></ellipse><ellipse cx="7.219" cy="7.219" rx="7.219" ry="7.219" transform="translate(120.403 226.42)" fill="none" stroke="#231d1d" stroke-miterlimit="10" stroke-width="5"></ellipse><ellipse cx="7.219" cy="7.219" rx="7.219" ry="7.219" transform="translate(101.49 169.834)" fill="none" stroke="#231d1d" stroke-miterlimit="10" stroke-width="5"></ellipse><ellipse cx="5.189" cy="5.189" rx="5.189" ry="5.189" transform="translate(147.077 194.676)" fill="none" stroke="#231d1d" stroke-miterlimit="10" stroke-width="5"></ellipse></g><rect width="282" height="282" transform="translate(2742 -2497)" fill="none"></rect></g></svg>