<svg id="Layer_1" xmlns="http://www.w3.org/2000/svg" width="60" height="60" viewBox="0 0 60 60"><path d="m37.45,46.05h9.6c.99,0,1.79-.8,1.79-1.79V12.79c0-.99-.8-1.79-1.79-1.79H7.79c-.99,0-1.79.8-1.79,1.79v31.47c0,.99.8,1.79,1.79,1.79h29.66Z" fill="none" stroke="#08152b" stroke-linecap="round" stroke-linejoin="round" stroke-width="2"></path><line x1="18.66" y1="12.75" x2="18.66" y2="9.24" fill="none" stroke="#08152b" stroke-linecap="round" stroke-linejoin="round" stroke-width="2"></line><line x1="24.53" y1="12.75" x2="24.53" y2="9.24" fill="none" stroke="#08152b" stroke-linecap="round" stroke-linejoin="round" stroke-width="2"></line><line x1="30.32" y1="12.75" x2="30.32" y2="9.24" fill="none" stroke="#08152b" stroke-linecap="round" stroke-linejoin="round" stroke-width="2"></line><line x1="36.18" y1="12.75" x2="36.18" y2="9.24" fill="none" stroke="#08152b" stroke-linecap="round" stroke-linejoin="round" stroke-width="2"></line><line x1="6" y1="16.92" x2="48.84" y2="16.92" fill="none" stroke="#08152b" stroke-linecap="round" stroke-linejoin="round" stroke-width="2"></line><path d="m49.73,15.71h2.48c.99,0,1.79.8,1.79,1.79v31.47c0,.99-.8,1.79-1.79,1.79H12.95c-.99,0-1.79-.8-1.79-1.79v-2.03" fill="none" stroke="#08152b" stroke-linecap="round" stroke-linejoin="round" stroke-width="2"></path></svg>