<svg id="Layer_1" xmlns="http://www.w3.org/2000/svg" width="60" height="60" viewBox="0 0 60 60"><path d="m30.89,20.97l2.18,4.66c.14.3.42.5.74.56l4.96.76c.79.12,1.11,1.09.55,1.66l-3.65,3.75c-.22.23-.32.54-.27.85l.85,5.25c.13.81-.73,1.42-1.44,1.02l-4.34-2.41c-.3-.16-.66-.16-.95,0l-4.34,2.41c-.72.4-1.58-.21-1.44-1.02l.85-5.25c.05-.31-.05-.62-.27-.85l-3.65-3.75c-.56-.58-.23-1.54.55-1.66l4.96-.76c.32-.05.6-.26.74-.56l2.18-4.66c.35-.76,1.42-.76,1.78,0h0Z" fill="none" stroke="#08152b" stroke-linecap="round" stroke-miterlimit="10" stroke-width="2"></path><circle cx="30" cy="30" r="16" fill="none" stroke="#08152b" stroke-linecap="round" stroke-miterlimit="10" stroke-width="2"></circle><circle cx="30" cy="30" r="24" fill="none" stroke="#08152b" stroke-linecap="round" stroke-miterlimit="10" stroke-width="2"></circle></svg>