<svg id="Layer_1" xmlns="http://www.w3.org/2000/svg" width="60" height="60" viewBox="0 0 60 60"><path d="m48.38,54H11.62c-1.18,0-2.13-1.15-2.13-2.56v-20.51c0-1.41.95-2.56,2.13-2.56h36.76c1.18,0,2.13,1.15,2.13,2.56v20.51c0,1.41-.95,2.56-2.13,2.56Z" fill="none" stroke="#08152b" stroke-linecap="round" stroke-linejoin="round" stroke-width="2"></path><path d="m42.44,19.58c-.63,0-1.13-.51-1.13-1.13,0-5.28-4.48-8.39-6.75-9.63-.18.45-.44.87-.78,1.25-2.07,2.26-6.89,2.73-10.57,2.73-4.47,0-4.53,5.43-4.53,5.66,0,.63-.51,1.13-1.13,1.13s-1.13-.51-1.13-1.13c0-2.74,1.42-7.92,6.79-7.92,4.49,0,7.73-.73,8.9-2,.35-.38.49-.79.45-1.3-.03-.39.14-.77.45-1,.31-.23.72-.29,1.09-.15.39.15,9.48,3.77,9.48,12.37,0,.63-.51,1.13-1.13,1.13h0Z" fill="#231d1d"></path><path d="m45.32,28.45H14.99c-.97,0-1.76-.4-1.76-.89v-7.09c0-.49.79-.89,1.76-.89h30.33c.97,0,1.76.4,1.76.89v7.09c0,.49-.79.89-1.76.89Z" fill="none" stroke="#08152b" stroke-linecap="round" stroke-linejoin="round" stroke-width="2"></path></svg>