<svg id="Layer_1" xmlns="http://www.w3.org/2000/svg" width="60" height="60" viewBox="0 0 60 60"><path d="m31.88,6.81l3.23,3.43c.6.64,1.49.93,2.36.77l4.63-.88c1.46-.28,2.85.74,3.04,2.21l.6,4.68c.11.87.66,1.63,1.46,2.01l4.26,2.02c1.34.64,1.88,2.27,1.16,3.58l-2.26,4.14c-.42.77-.42,1.71,0,2.48l2.26,4.14c.71,1.3.18,2.94-1.16,3.58l-4.26,2.02c-.8.38-1.35,1.13-1.46,2.01l-.6,4.68c-.19,1.48-1.58,2.49-3.04,2.21l-4.63-.88c-.87-.16-1.76.13-2.36.77l-3.23,3.43c-1.02,1.08-2.74,1.08-3.76,0l-3.23-3.43c-.6-.64-1.49-.93-2.36-.77l-4.63.88c-1.46.28-2.85-.74-3.04-2.21l-.6-4.68c-.11-.87-.66-1.63-1.46-2.01l-4.26-2.02c-1.34-.64-1.88-2.27-1.16-3.58l2.26-4.14c.42-.77.42-1.71,0-2.48l-2.26-4.14c-.71-1.3-.18-2.94,1.16-3.58l4.26-2.02c.8-.38,1.35-1.13,1.46-2.01l.6-4.68c.19-1.48,1.58-2.49,3.04-2.21l4.63.88c.87.16,1.76-.13,2.36-.77l3.23-3.43c1.02-1.08,2.74-1.08,3.76,0Z" fill="none" stroke="#08152b" stroke-linecap="round" stroke-miterlimit="10" stroke-width="2"></path><circle cx="24" cy="23" r="3.5" fill="none" stroke="#08152b" stroke-linecap="round" stroke-miterlimit="10" stroke-width="2"></circle><line x1="38" y1="22" x2="22" y2="38" fill="none" stroke="#08152b" stroke-linecap="round" stroke-miterlimit="10" stroke-width="2"></line><circle cx="36" cy="37" r="3.5" fill="none" stroke="#08152b" stroke-linecap="round" stroke-miterlimit="10" stroke-width="2"></circle></svg>