<svg id="Layer_1" xmlns="http://www.w3.org/2000/svg" width="60" height="60" viewBox="0 0 60 60"><path d="m30.62,17.25l1.64,3.5c.1.22.31.38.56.42l3.72.57c.59.09.84.82.42,1.25l-2.74,2.82c-.16.17-.24.4-.2.64l.64,3.94c.1.61-.55,1.07-1.08.77l-3.26-1.81c-.22-.12-.49-.12-.71,0l-3.26,1.81c-.54.3-1.18-.16-1.08-.77l.64-3.94c.04-.23-.04-.47-.2-.64l-2.74-2.82c-.42-.43-.18-1.16.42-1.25l3.72-.57c.24-.04.45-.19.56-.42l1.64-3.5c.27-.57,1.07-.57,1.34,0h0Z" fill="none" stroke="#08152b" stroke-linecap="round" stroke-miterlimit="10" stroke-width="2"></path><circle cx="29.95" cy="24.03" r="12.02" fill="none" stroke="#08152b" stroke-linecap="round" stroke-miterlimit="10" stroke-width="2"></circle><circle cx="29.95" cy="24.03" r="18.03" fill="none" stroke="#08152b" stroke-linecap="round" stroke-miterlimit="10" stroke-width="2"></circle><polyline points="15.7 35.08 8.5 47.71 16.32 46.26" fill="none" stroke="#08152b" stroke-linecap="round" stroke-linejoin="round" stroke-width="2"></polyline><polyline points="26.8 42.14 18.4 54 16.42 46.3" fill="none" stroke="#08152b" stroke-linecap="round" stroke-linejoin="round" stroke-width="2"></polyline><polyline points="44.3 35.08 51.5 47.71 43.68 46.26" fill="none" stroke="#08152b" stroke-linecap="round" stroke-linejoin="round" stroke-width="2"></polyline><polyline points="33.2 42.14 41.6 54 43.58 46.3" fill="none" stroke="#08152b" stroke-linecap="round" stroke-linejoin="round" stroke-width="2"></polyline></svg>